<?xml version="1.0" encoding="UTF-8"?>
<svg id="Layer_2" data-name="Layer 2" xmlns="http://www.w3.org/2000/svg" viewBox="0 0 24 24">
  <defs>
    <style>
      .cls-1 {
        fill: #fff;
      }

      .cls-2 {
        fill: #070211;
      }
    </style>
  </defs>
  <g id="Layer_1-2" data-name="Layer 1">
    <g>
      <rect class="cls-2" x="0" y="0" width="24" height="24" rx="8" ry="8" transform="translate(24 24) rotate(180)"/>
      <path class="cls-1" d="M19,18.5h-4c-.38,0-.73-.21-.89-.55l-1-2.01c-.25-.5-.05-1.1.45-1.35.5-.25,1.1-.05,1.34.45l.72,1.45h1.71s-5.33-9.92-5.33-9.92l-5.33,9.92h1.71s.72-1.45.72-1.45c.25-.5.85-.7,1.34-.45.49.25.69.85.45,1.35l-1,2.01c-.17.34-.52.55-.89.55h-4c-.35,0-.68-.19-.86-.49-.18-.3-.19-.68-.02-.99L11.12,3.99c.35-.65,1.41-.65,1.76,0l7,13.03c.17.31.16.69-.02.99-.18.3-.51.49-.86.49Z"/>
    </g>
  </g>
</svg>